<svg xmlns="http://www.w3.org/2000/svg" viewBox="0 0 1736.69 368.5">
  <title>Ресурс 1</title>
  <g id="58295176-67f6-4023-a9c2-81dd2869b473" data-name="Шар 2">
    <g id="1e9fde40-7008-4d4b-a1d4-9efbc80fa2c5" data-name="Слой 29">
      <g>
        <g>
          <rect x="87.36" y="126.43" width="139.78" height="52.42" rx="10.8" ry="10.8" style="fill: #ffb300"/>
          <rect width="227.15" height="52.42" rx="10.8" ry="10.8" style="fill: #ffb300"/>
          <rect y="252.87" width="227.15" height="52.42" rx="10.8" ry="10.8" style="fill: #ffb300"/>
          <rect x="139.78" y="63.22" width="227.15" height="52.42" rx="10.8" ry="10.8" style="fill: #263238"/>
          <rect x="139.78" y="316.09" width="227.15" height="52.42" rx="10.8" ry="10.8" style="fill: #263238"/>
          <rect x="139.78" y="189.65" width="227.15" height="52.42" rx="10.8" ry="10.8" style="fill: #263238"/>
          <rect x="314.53" y="252.87" width="87.36" height="52.42" rx="10.8" ry="10.8" style="fill: #263238"/>
        </g>
        <g>
          <path d="M542.81,268.23c-23,0-42.61-4-60.09-20l23.86-23.86c8.74,7.46,22.8,10.65,34.31,10.65,9.59,0,18.54-5.33,18.54-14.06,0-9.59-7.88-16.41-18.32-16.41h-20V174.27h20c10.23,0,16.62-5.54,16.62-14.49,0-8.31-8.74-13.21-16.83-13.21-10.65,0-21.52,1.92-29.4,8.95l-23.44-23.44C503,118.65,522.57,114,542.81,114c28.34,0,52,16.83,52,43,0,13.64-7.88,25.14-18.32,31.54a36.48,36.48,0,0,1,20.46,33.24C596.94,249.91,573.28,268.23,542.81,268.23Z" style="fill: #263238"/>
          <path d="M707.52,267l-7-22.59H653.83L646.37,267h-39l55.19-151.71h28.77L746.52,267Zm-29.62-94.18-13.64,40.48h26.42Z" style="fill: #263238"/>
          <path d="M839,267l-24.93-46.66L789.14,267H746.52l47.3-77.77L749.5,115.25h42.4l22.16,42.83,22.16-42.83h42.4l-44.32,73.94L881.61,267Z" style="fill: #263238"/>
          <path d="M897,267V115.25h37.29V267Z" style="fill: #263238"/>
          <path d="M1061.87,297.64V267H987.51v30.68h-35.8V233.71h14.91C977.28,205.38,982,175.33,982,121.64v-6.39h98.44V233.71h17.26v63.92Zm-18.75-149.15h-24.5v4.26c0,36-5.75,58.81-13.64,81h38.14Z" style="fill: #263238"/>
          <path d="M1112.16,220.5V187.69H1182V220.5Z" style="fill: #263238"/>
          <path d="M1270.47,267h-62.64V115.25h103.55v33.24h-66.27v20.88h25.36c31.75,0,50.71,20.46,50.71,48.79S1302.44,267,1270.47,267Zm-1.7-64.14h-23.65V233.5h23.65c9.38,0,15.13-6.61,15.13-15.34S1278.15,202.82,1268.77,202.82Z" style="fill: #263238"/>
          <path d="M1407.06,212.83h-22.8V267H1347V115.25h60.09c30,0,51.78,20.46,51.78,48.79S1437.32,212.83,1407.06,212.83Zm-1.7-64.14h-21.09v30.68h21.09c9.38,0,16.19-6.61,16.19-15.34S1414.73,148.7,1405.36,148.7Z" style="fill: #263238"/>
          <path d="M1540,240.32c-5.75,13.42-16.83,26.63-36.22,26.63h-20.67V233.71h13.21c11.51,0,15.34-8.74,16.83-14.7l-47.94-103.77H1504l26.64,63.5,24.08-63.5h38.57Z" style="fill: #263238"/>
          <path d="M1693.23,267l-34.94-62.22-12.78,14.7V267h-36.86V115.25h36.86v53.7l43.89-53.7H1735l-51.78,61.37L1736.69,267Z" style="fill: #263238"/>
        </g>
      </g>
    </g>
  </g>
</svg>
