<?xml version="1.0" encoding="utf-8"?>
<!-- Generator: Adobe Illustrator 21.1.0, SVG Export Plug-In . SVG Version: 6.00 Build 0)  -->
<svg version="1.1" id="Шар_1" xmlns="http://www.w3.org/2000/svg" xmlns:xlink="http://www.w3.org/1999/xlink" x="0px" y="0px"
	 viewBox="0 0 24 24" style="enable-background:new 0 0 24 24;" xml:space="preserve">
<style type="text/css">
	.st0{fill:none;}
</style>
<g>
	<g>
		<g>
			<polygon points="13,15 11,15 11,4 12,3 13,4 			"/>
			<polygon points="17,15 15,15 15,5 16,4 17,5 			"/>
			<polygon points="9,15 7,15 7,5 8,4 9,5 			"/>
			<polygon points="21,14 19,14 19,6 20,5 21,6 			"/>
			<polygon points="5,15 3,15 3,6 4,5 5,6 			"/>
			<rect x="3" y="8" width="18" height="2"/>
			<rect x="3" y="13" width="18" height="2"/>
		</g>
	</g>
	<rect x="3" y="16" width="18" height="5"/>
	<rect class="st0" width="24" height="24"/>
</g>
</svg>
