<?xml version="1.0" encoding="utf-8"?>
<!-- Generator: Adobe Illustrator 21.1.0, SVG Export Plug-In . SVG Version: 6.00 Build 0)  -->
<svg version="1.1" id="Шар_1" xmlns="http://www.w3.org/2000/svg" xmlns:xlink="http://www.w3.org/1999/xlink" x="0px" y="0px"
	 viewBox="0 0 24 24" style="enable-background:new 0 0 24 24;" xml:space="preserve">
<style type="text/css">
	.st0{fill:none;}
</style>
<g>
	<path d="M8.8,8H3.2C2.5,8,2,7.3,2,6.4V3.6C2,2.7,2.5,2,3.2,2h5.6C9.5,2,10,2.7,10,3.6v2.9C10,7.3,9.5,8,8.8,8z"/>
	<path d="M20.8,22h-5.6c-0.7,0-1.2-0.7-1.2-1.6v-2.9c0-0.8,0.5-1.6,1.2-1.6h5.6c0.7,0,1.2,0.7,1.2,1.6v2.9C22,21.3,21.5,22,20.8,22z
		"/>
	<path d="M12.4,8h8.1C21.3,8,22,7.3,22,6.4V3.6C22,2.7,21.3,2,20.6,2h-8.1C11.7,2,11,2.7,11,3.6v2.9C11,7.3,11.7,8,12.4,8z"/>
	<path d="M3.4,22h8.1c0.8,0,1.4-0.7,1.4-1.6v-2.9c0-0.8-0.7-1.6-1.4-1.6H3.4C2.7,16,2,16.7,2,17.6v2.9C2,21.3,2.7,22,3.4,22z"/>
	<path d="M5.7,15H3.3C2.6,15,2,14.3,2,13.4v-2.9C2,9.7,2.6,9,3.3,9h2.4C6.4,9,7,9.7,7,10.6v2.9C7,14.3,6.4,15,5.7,15z"/>
	<path d="M14.6,15H9.4C8.6,15,8,14.3,8,13.4v-2.9C8,9.7,8.7,9,9.4,9h5.2c0.8,0,1.4,0.7,1.4,1.6v2.9C16,14.3,15.3,15,14.6,15z"/>
	<path d="M20.7,15h-2.4c-0.7,0-1.3-0.7-1.3-1.6v-2.9C17,9.7,17.6,9,18.3,9h2.4c0.7,0,1.3,0.7,1.3,1.6v2.9C22,14.3,21.4,15,20.7,15z"
		/>
	<g>
		<rect x="0" class="st0" width="24" height="24"/>
	</g>
</g>
</svg>
