<?xml version="1.0" encoding="utf-8"?>
<!-- Generator: Adobe Illustrator 21.1.0, SVG Export Plug-In . SVG Version: 6.00 Build 0)  -->
<svg version="1.1" id="Шар_1" xmlns="http://www.w3.org/2000/svg" xmlns:xlink="http://www.w3.org/1999/xlink" x="0px" y="0px"
	 viewBox="0 0 24 24" style="enable-background:new 0 0 24 24;" xml:space="preserve">
<style type="text/css">
	.st0{fill:none;}
</style>
<g>
	<path d="M14,16c1.9,0.4,4.1,0.9,5.5,2.3c1,1,1.4,2.2,1.5,3.6c0,0,0,0.1,0,0.1C15,22,9,22,3,22c0.1-0.5,0.2-1,0.3-1.5
		c0.4-1.5,1.4-2.6,2.8-3.4c1.1-0.7,2.6-0.9,3.9-1.1c0.7,0.7,1.2,1.3,2,2L14,16z"/>
	<path d="M10.9,3.5"/>
	<path d="M13.1,2.1c0.5,0.1,1,0.3,1.4,0.5c1,0.7,1.6,1.7,2,2.9c0.1,0.4,0.2,0.8,0.3,1.2c0.1,0.2,0.1,0.4,0.2,0.6
		c0.1,0.2,0.1,0.4,0,0.5c-0.5,0.7-1,0.9-1.7,1.4c-0.1,0.1-0.2,0.1-0.3,0.1c-1.9,0-3.8,0-5.8,0c-0.1,0-0.2,0-0.3-0.1
		C8.1,8.8,7.6,8.6,7.1,7.9C7,7.8,7,7.6,7,7.5C7.3,7,7.3,6.4,7.4,5.9c0.3-1.3,0.9-2.4,1.9-3.2c0.5-0.3,1.1-0.5,1.6-0.6
		c0,0,0.6-0.1,1.1-0.1C12.5,2,13.1,2.1,13.1,2.1z"/>
	<path d="M7.1,8.8c0.3,0.3,0.7,0.7,1,1c0.2,0.2,0.4,0.3,0.7,0.3c2.1,0,4.1,0,6.2,0c0.3,0,0.5-0.1,0.7-0.3c0.4-0.3,0.8-0.6,1.1-0.9
		c0,0,0,0,0,0c0.1,0.9,0.1,1.8-0.4,2.6c0,0.1-0.1,0.1-0.1,0.2c-0.4,0.3-0.5,0.7-0.7,1.2c-0.6,1.4-1.5,2.4-3,2.7
		c-1.5,0.4-3-0.2-3.9-1.4C8.5,13.7,8.2,13,8,12.4c0-0.1-0.1-0.2-0.1-0.2C7.3,11.6,7.1,11,7,10.3C7,9.8,7,9.3,7.1,8.8
		C7,8.8,7.1,8.8,7.1,8.8z"/>
	<rect x="0" class="st0" width="24" height="24"/>
</g>
</svg>
